<?xml version="1.0" encoding="iso-8859-1"?>
<!-- Generator: Adobe Illustrator 19.0.0, SVG Export Plug-In . SVG Version: 6.00 Build 0)  -->
<svg version="1.1" id="Layer_1" xmlns="http://www.w3.org/2000/svg" xmlns:xlink="http://www.w3.org/1999/xlink" x="0px" y="0px"
	 viewBox="0 0 511.999 511.999" style="enable-background:new 0 0 511.999 511.999;" xml:space="preserve">
<circle style="fill:#D7F3FF;" cx="256.003" cy="256.003" r="249.99"/>
<g>
	<path style="fill:#FFFFFF;" d="M442.583,260.953c5.388,0,9.753,4.365,9.753,9.753c0,5.388-4.365,9.765-9.753,9.765
		c-3.295,0-57.964,0-61.572,0c-5.388,0-9.765-4.377-9.765-9.765c0-5.387,4.377-9.753,9.765-9.753c0.541,0,1.07,0.048,1.587,0.132
		c-0.012-0.192-0.036-0.385-0.036-0.577c0-11.028,8.935-19.963,19.963-19.963c8.009,0,14.9,4.738,18.075,11.545
		c1.239-0.349,2.549-0.541,3.896-0.541c6.566,0,12.098,4.377,13.866,10.366C439.637,261.302,441.068,260.953,442.583,260.953z"/>
	<path style="fill:#FFFFFF;" d="M170.093,135.753c6.602,0,11.966,5.351,11.966,11.966c0,6.602-5.363,11.966-11.966,11.966
		c-4.041,0-71.048,0-75.485,0c-6.602,0-11.966-5.363-11.966-11.966c0-6.614,5.363-11.966,11.966-11.966
		c0.673,0,1.311,0.06,1.948,0.168c-0.012-0.241-0.036-0.469-0.036-0.71c0-13.517,10.955-24.472,24.472-24.472
		c9.825,0,18.267,5.808,22.163,14.154c1.515-0.421,3.115-0.673,4.762-0.673c8.045,0,14.84,5.375,17.004,12.723
		C166.485,136.186,168.241,135.753,170.093,135.753z"/>
</g>
<g>
	<polygon style="fill:#F4C290;" points="264.759,48.326 267.188,75.661 244.808,75.661 247.237,48.326 256.004,48.326 	"/>
	<polygon style="fill:#F4C290;" points="289.484,244.754 295.34,272.004 291.047,272.004 267.296,272.004 244.7,272.004 
		220.949,272.004 216.656,272.004 222.513,244.754 229.812,244.754 256.004,244.754 282.184,244.754 	"/>
	<polygon style="fill:#F4C290;" points="318.393,321.719 322.049,348.969 321.051,348.969 190.945,348.969 189.947,348.969 
		193.603,321.719 203.632,321.719 235.043,321.719 276.953,321.719 308.364,321.719 	"/>
	<polygon style="fill:#F4C290;" points="256.004,244.754 229.812,244.754 244.808,75.661 267.188,75.661 282.184,244.754 	"/>
	<polygon style="fill:#F4C290;" points="244.7,272.004 235.043,321.719 203.632,321.719 220.949,272.004 	"/>
	<polygon style="fill:#F4C290;" points="291.047,272.004 308.364,321.719 276.953,321.719 267.296,272.004 	"/>
	<path style="fill:#F4C290;" d="M342.673,384.192l27.106,44.146h-51.65c0-17.269-7.047-32.878-18.411-44.146
		c-11.22-11.112-26.673-17.978-43.713-17.978c-17.052,0-32.505,6.867-43.725,17.978c-11.364,11.268-18.411,26.877-18.411,44.146
		h-51.65l27.106-44.146l21.622-35.223h130.106L342.673,384.192z"/>
</g>
<g>
	<path style="fill:#90BC42;" d="M447.814,366.31c8.995-8.995,23.57-8.995,32.566,0c-17.642,35.849-43.641,66.851-75.437,90.469
		l-7.54-21.694c-2.898-8.334-0.77-17.606,5.472-23.847l27.058-27.046L447.814,366.31z"/>
	<path style="fill:#90BC42;" d="M109.122,411.238c6.241,6.241,8.37,15.501,5.472,23.847l-7.54,21.694
		c-31.796-23.618-57.783-54.609-75.437-90.457l0.012-0.012c8.995-8.995,23.57-8.995,32.566,0l17.882,17.882L109.122,411.238z"/>
</g>
<path style="fill:#9AD14B;" d="M429.932,384.192l-27.058,27.046c-6.241,6.241-8.37,15.513-5.472,23.847l7.54,21.694
	c-41.597,30.918-93.127,49.209-148.938,49.209s-107.353-18.291-148.95-49.197v-0.012l7.54-21.694
	c2.898-8.346,0.77-17.606-5.472-23.847l-27.046-27.046h63.291h23.955l-27.106,44.146h51.65c0-17.269,7.047-32.878,18.411-44.146
	h28.91h58.529c11.364,11.268,18.411,26.877,18.411,44.146h51.65l-27.106-44.146L429.932,384.192L429.932,384.192z"/>
<g>
	<path style="fill:#333333;" d="M255.999,0C114.841,0,0,114.841,0,255.999s114.841,255.999,255.999,255.999
		s255.999-114.841,255.999-255.999S397.158,0,255.999,0z M255.999,12.026c134.528,0,243.974,109.446,243.974,243.974
		c0,36.051-7.868,70.296-21.964,101.122c-11.019-6.012-25.132-4.377-34.449,4.935l-16.125,16.123h-81.396l-17.978-29.284
		c-0.004-0.239-0.017-0.48-0.049-0.72l-3.659-27.259c-0.4-2.985-2.947-5.213-5.96-5.213h-5.758l-13.575-38.97
		c0.35-0.275,0.67-0.592,0.955-0.944c1.142-1.413,1.583-3.266,1.201-5.042l-5.86-27.259c-0.595-2.771-3.045-4.749-5.878-4.749
		h-1.792L271.324,54.296c3.085-0.256,5.517-2.812,5.517-5.962c0-3.32-2.693-6.013-6.013-6.013l-8.818-0.006V28.289
		c0-3.32-2.693-6.013-6.013-6.013c-3.32,0-6.013,2.693-6.013,6.013v14.024l-8.818,0.006c-3.32,0-6.013,2.693-6.013,6.013
		c0,3.151,2.433,5.707,5.517,5.962l-16.362,184.444h-1.792c-2.833,0-5.283,1.978-5.878,4.749l-5.861,27.259
		c-0.382,1.776,0.059,3.629,1.201,5.042c0.285,0.354,0.606,0.669,0.956,0.944l-13.575,38.97h-5.758c-3.011,0-5.558,2.228-5.96,5.213
		l-3.659,27.259c-0.032,0.241-0.046,0.481-0.049,0.72l-17.978,29.284H84.567l-16.12-16.12c-9.315-9.315-23.428-10.948-34.454-4.933
		C19.895,326.3,12.026,292.054,12.026,255.999C12.026,121.472,121.472,12.026,255.999,12.026z M256.004,360.201
		c-35.553,0-64.834,27.357-67.886,62.125h-35.154l41.342-67.338H317.69l41.342,67.338H323.88
		C320.826,387.559,291.55,360.201,256.004,360.201z M281.111,378.18h-50.219c7.562-3.8,16.088-5.953,25.112-5.953
		C265.026,372.227,273.551,374.38,281.111,378.18z M259.256,54.345l1.358,15.298h-9.23l1.357-15.298H259.256z M250.316,81.669
		h11.364l13.934,157.07h-13.603v-33.743c0-3.32-2.693-6.013-6.013-6.013s-6.013,2.693-6.013,6.013v33.743h-13.603L250.316,81.669z
		 M284.621,250.765l3.276,15.233h-63.798l3.275-15.233L284.621,250.765L284.621,250.765z M262.339,278.023l7.319,37.68h-27.322
		l7.319-37.68H262.339L262.339,278.023z M281.909,315.703l-7.319-37.68h12.186l13.125,37.68H281.909z M225.22,278.023h12.186
		l-7.319,37.68h-17.992L225.22,278.023z M198.863,327.729h114.271l2.044,15.233H196.817L198.863,327.729z M39.275,367.956
		c6.523-3.846,15.072-2.99,20.669,2.607l44.93,44.93c4.582,4.581,6.168,11.497,4.042,17.616l-4.761,13.706
		C77.372,425.459,55.169,398.599,39.275,367.956z M114.234,454.445l6.041-17.389c3.628-10.446,0.921-22.248-6.898-30.067
		l-16.784-16.784h61.979l-21.48,34.988c-1.139,1.856-1.186,4.181-0.123,6.081c1.063,1.9,3.07,3.077,5.247,3.077h51.65
		c3.32,0,6.013-2.693,6.013-6.013c0-14.713,5.701-28.116,15.002-38.133h82.234c9.298,10.017,15,23.42,15,38.133
		c0,3.32,2.693,6.013,6.013,6.013h51.65c2.178,0,4.184-1.177,5.247-3.077s1.016-4.226-0.123-6.081l-21.48-34.988h61.985
		l-16.785,16.783c-7.822,7.82-10.53,19.624-6.899,30.071l6.042,17.387c-39.983,28.645-88.938,45.528-141.765,45.528
		S154.218,483.09,114.234,454.445z M407.845,446.816l-4.762-13.704c-2.127-6.121-0.541-13.037,4.042-17.619l44.939-44.932
		c5.596-5.594,14.141-6.451,20.663-2.61C456.833,398.596,434.628,425.458,407.845,446.816z"/>
	<path style="fill:#333333;" d="M94.611,165.696h75.48c9.914,0,17.98-8.066,17.98-17.98s-8.066-17.978-17.98-17.978
		c-0.599,0-1.193,0.029-1.781,0.088c-4.486-7.492-12.985-12.192-22.011-11.554c-5.604-8.348-15.104-13.541-25.309-13.541
		c-15.072,0-27.623,10.995-30.056,25.385c-8.156,1.702-14.301,8.947-14.301,17.601C76.633,157.632,84.697,165.696,94.611,165.696z
		 M94.611,141.764c0.274,0,0.592,0.03,0.973,0.093c1.773,0.291,3.581-0.226,4.933-1.409c1.352-1.183,2.103-2.908,2.05-4.703
		c-0.006-0.183-0.017-0.363-0.034-0.53c0-10.177,8.28-18.457,18.457-18.457c7.128,0,13.688,4.192,16.715,10.679
		c1.243,2.665,4.232,4.039,7.064,3.249c6.375-1.779,12.632,2.02,14.38,7.955c0.499,1.692,1.715,3.08,3.328,3.795
		s3.457,0.688,5.047-0.077c0.821-0.394,1.685-0.595,2.569-0.595c3.283,0,5.954,2.671,5.954,5.953c0,3.282-2.671,5.954-5.954,5.954
		H94.611c-3.282,0-5.953-2.671-5.953-5.954S91.329,141.764,94.611,141.764z"/>
	<path style="fill:#333333;" d="M381.008,286.482h61.57c8.698,0,15.774-7.076,15.774-15.774s-7.076-15.774-15.774-15.774
		c-0.291,0-0.58,0.008-0.868,0.024c-3.84-5.944-10.672-9.687-17.978-9.409c-4.815-6.807-12.724-11.013-21.205-11.013
		c-12.586,0-23.111,9-25.476,20.902c-6.788,1.761-11.815,7.939-11.815,15.27C365.235,279.406,372.311,286.482,381.008,286.482z
		 M381.008,266.961c0.164,0,0.363,0.02,0.613,0.061c1.769,0.29,3.578-0.225,4.928-1.405c1.352-1.18,2.104-2.901,2.055-4.694
		c-0.004-0.154-0.013-0.307-0.025-0.508c0.05-7.648,6.287-13.855,13.947-13.855c5.385,0,10.342,3.169,12.629,8.072
		c1.243,2.665,4.231,4.038,7.064,3.249c4.632-1.292,9.109,1.459,10.37,5.734c0.499,1.692,1.715,3.08,3.328,3.797
		c1.613,0.717,3.459,0.688,5.047-0.077c0.518-0.249,1.061-0.376,1.614-0.376c2.067,0,3.748,1.681,3.748,3.748
		c0,2.067-1.681,3.748-3.748,3.748h-61.57c-2.067,0-3.748-1.681-3.748-3.748C377.26,268.642,378.942,266.961,381.008,266.961z"/>
</g>
<g>
</g>
<g>
</g>
<g>
</g>
<g>
</g>
<g>
</g>
<g>
</g>
<g>
</g>
<g>
</g>
<g>
</g>
<g>
</g>
<g>
</g>
<g>
</g>
<g>
</g>
<g>
</g>
<g>
</g>
</svg>
